<?xml version="1.0" standalone="no"?>
<!DOCTYPE svg PUBLIC "-//W3C//DTD SVG 20010904//EN"
 "http://www.w3.org/TR/2001/REC-SVG-20010904/DTD/svg10.dtd">
<svg version="1.0" xmlns="http://www.w3.org/2000/svg"
 width="1280.000000pt" height="617.000000pt" viewBox="0 0 1280.000000 617.000000"
 preserveAspectRatio="xMidYMid meet">

<g transform="translate(0.000000,617.000000) scale(0.100000,-0.100000)"
fill="#000000" stroke="none">
<path d="M1 5878 c1 -286 1 -291 15 -213 52 289 199 451 409 449 102 -1 224
-45 309 -113 40 -32 56 -33 56 0 0 10 3 19 8 19 4 0 82 -14 175 -32 l167 -32
0 -807 0 -808 -32 4 c-18 2 -98 9 -178 15 -80 6 -157 13 -172 16 l-28 6 0 456
c-1 251 -5 477 -9 501 -17 86 -87 141 -179 141 -67 0 -107 -26 -122 -78 -15
-57 -13 -4626 3 -4671 18 -51 58 -76 118 -74 72 2 139 38 164 88 20 39 20 63
23 1078 l2 1037 -80 0 -80 0 0 305 0 305 263 -6 c144 -3 272 -7 285 -10 l22
-4 0 -1628 0 -1629 -171 -28 c-180 -29 -188 -28 -189 16 0 12 -13 5 -42 -23
-104 -97 -162 -130 -263 -152 -11 -2 2758 -4 6153 -5 l6172 -1 0 2770 c0 2059
-3 2770 -11 2770 -7 0 -40 -5 -75 -12 -54 -10 -64 -15 -64 -32 0 -12 -1 -1247
-3 -2746 l-2 -2725 -40 3 c-37 2 -326 61 -333 67 -6 5 -32 207 -41 310 -5 55
-21 195 -35 310 -15 116 -40 325 -57 465 -56 473 -133 1115 -180 1500 -16 135
-32 268 -35 295 -2 28 -15 122 -27 210 l-22 160 -3 -1274 c-1 -701 -1 -1276 1
-1278 2 -1 40 -8 85 -15 l82 -11 0 -320 c0 -266 -2 -318 -14 -314 -7 3 -35 8
-62 12 -27 3 -123 19 -214 35 -91 16 -218 37 -282 46 l-118 18 0 309 0 309 28
-6 c15 -3 48 -8 75 -12 l47 -6 0 2257 0 2257 -57 -6 c-32 -4 -66 -9 -75 -12
-17 -5 -18 13 -18 285 0 160 3 291 8 291 7 0 179 29 421 70 63 11 116 19 117
17 2 -2 10 -61 19 -132 9 -72 29 -236 45 -365 16 -129 43 -347 60 -485 17
-137 42 -338 55 -445 14 -107 27 -220 30 -250 3 -30 19 -161 35 -290 16 -129
43 -352 60 -495 62 -520 57 -583 59 731 l1 1191 -42 -8 c-24 -4 -55 -8 -70 -9
l-28 0 0 298 0 299 53 11 c28 6 81 16 117 23 72 12 320 61 420 83 56 12 -835
14 -6322 15 l-6388 1 1 -292z m1449 32 c337 -51 478 -72 615 -90 232 -31 277
-43 347 -92 59 -42 133 -129 170 -202 24 -47 51 -142 70 -246 19 -106 19
-1639 0 -1750 -22 -128 -40 -169 -103 -236 l-59 -60 41 -44 c79 -84 113 -184
129 -377 12 -149 13 -1690 0 -1839 -27 -336 -136 -532 -329 -594 -35 -11 -120
-27 -190 -36 -69 -9 -198 -27 -286 -40 -88 -13 -198 -29 -245 -34 -73 -9 -188
-28 -267 -46 l-23 -4 0 309 0 309 28 5 c15 3 55 9 90 13 l62 7 0 2232 0 2232
-62 7 c-35 4 -75 10 -90 13 l-28 6 0 290 0 290 33 -7 c17 -4 61 -11 97 -16z
m9324 -157 c4 -38 11 -138 16 -223 5 -85 18 -252 29 -370 11 -118 22 -264 26
-325 3 -60 17 -233 31 -382 13 -150 27 -319 30 -375 3 -57 16 -227 29 -378 14
-151 29 -349 35 -440 6 -91 19 -259 30 -375 10 -115 22 -259 25 -320 3 -60 17
-236 30 -390 14 -154 27 -329 31 -390 3 -60 18 -258 35 -439 16 -181 29 -360
29 -397 0 -76 3 -79 81 -79 l49 0 0 -305 0 -305 -57 6 c-32 3 -125 17 -208 30
-82 13 -199 29 -259 34 -60 6 -113 13 -118 16 -4 3 -8 135 -8 295 l0 289 44 0
c25 0 47 3 49 8 3 4 -8 156 -24 337 -15 182 -28 355 -29 386 l0 56 -112 7
c-62 4 -141 9 -174 13 l-62 6 -6 -39 c-3 -22 -8 -84 -11 -139 -3 -55 -15 -207
-27 -338 -23 -262 -24 -256 37 -257 17 0 40 -3 53 -6 l22 -6 0 -287 0 -287
-62 4 c-35 2 -146 15 -248 28 -102 14 -218 27 -257 31 l-73 6 0 284 0 284 53
-6 54 -7 12 134 c7 73 15 178 17 233 3 55 16 222 29 370 13 149 27 313 30 365
3 52 19 262 35 465 16 204 43 544 60 758 16 213 43 559 60 770 34 437 83 1077
105 1377 9 113 18 221 21 241 l5 36 107 12 c59 6 166 20 237 30 72 10 144 19
161 20 l31 1 7 -67z m-7139 -78 c101 -29 167 -67 238 -134 106 -100 173 -234
185 -370 9 -102 9 -4091 0 -4161 -12 -87 -60 -218 -101 -273 -92 -122 -184
-197 -302 -247 -73 -31 -91 -34 -202 -38 -96 -3 -133 0 -175 13 -156 51 -275
178 -329 351 l-24 79 0 2185 0 2185 28 83 c64 184 180 296 362 348 72 20 209
12 320 -21z m5515 -295 l0 -260 -44 0 c-24 0 -64 -3 -90 -6 l-46 -7 2 -2016 3
-2016 90 -7 c50 -3 123 -9 163 -13 l72 -6 0 638 0 638 173 -3 c94 -2 178 -5
185 -7 18 -6 18 -1855 -1 -1855 -6 0 -91 9 -187 20 -96 11 -242 24 -325 30
-82 5 -283 21 -445 35 -162 13 -301 25 -307 25 -10 0 -13 61 -13 271 l0 272
85 -6 85 -7 0 1992 0 1991 -85 -7 -85 -6 0 259 0 259 83 6 c45 3 141 8 212 12
72 3 184 12 250 19 66 7 144 13 173 14 l52 1 0 -260z m-4640 204 c146 -8 275
-18 288 -20 l22 -4 0 -250 0 -250 -73 0 -74 0 24 -102 c12 -57 23 -113 23
-124 0 -12 12 -73 26 -135 14 -63 29 -136 34 -164 4 -27 34 -180 66 -339 l59
-289 27 144 c15 79 41 227 58 329 17 102 44 257 60 345 39 224 50 290 50 309
0 13 -12 16 -70 16 l-70 0 0 254 0 255 33 -5 c17 -3 165 -9 327 -12 l295 -7 3
-254 2 -254 -48 7 -48 6 -12 -72 c-7 -40 -15 -89 -17 -108 -3 -19 -16 -91 -30
-160 -13 -69 -27 -145 -30 -170 -3 -25 -17 -103 -30 -175 -13 -71 -38 -211
-55 -310 -18 -99 -45 -250 -60 -335 -16 -85 -32 -175 -35 -200 -3 -25 -15 -90
-25 -145 -11 -55 -29 -154 -40 -220 -11 -66 -28 -169 -39 -230 -19 -104 -20
-155 -21 -942 l0 -833 90 0 90 0 0 -264 0 -264 -112 -6 c-62 -3 -230 -13 -374
-21 -144 -8 -269 -15 -278 -15 -14 0 -16 26 -16 270 l0 270 38 0 c20 0 61 3
90 6 l52 7 0 806 0 806 -24 115 c-34 159 -77 371 -91 455 -14 82 -45 235 -86
424 -16 73 -29 143 -29 154 0 12 -13 84 -29 162 -36 171 -79 384 -122 610 -18
94 -44 226 -58 295 l-26 125 -48 9 -47 9 0 254 0 253 48 0 c26 0 166 -7 312
-16z m3266 -25 c38 -12 81 -28 97 -35 26 -14 27 -13 27 9 0 24 3 25 103 31 56
4 137 9 180 13 l77 6 0 -702 c0 -552 -3 -703 -12 -706 -7 -2 -102 -6 -211 -7
l-197 -3 0 412 0 413 -29 32 c-25 29 -36 33 -94 38 -87 7 -126 -2 -159 -39
l-28 -31 0 -1919 c0 -1894 0 -1919 20 -1943 58 -74 224 -78 274 -7 14 21 16
95 16 761 l0 738 210 0 211 0 -3 -798 -3 -797 -31 -90 c-32 -91 -95 -194 -151
-247 -45 -43 -131 -97 -181 -114 -98 -33 -192 -39 -299 -21 -108 19 -175 48
-255 108 -105 79 -197 230 -217 359 -14 86 -15 3970 -1 4090 16 138 77 269
162 346 116 105 338 151 494 103z m-1361 -47 c37 -18 69 -32 70 -32 2 0 5 10
7 23 3 22 5 22 176 25 l172 2 0 -685 0 -685 -205 0 -205 0 0 390 c0 447 0 447
-72 480 -74 33 -175 21 -220 -27 l-23 -25 -3 -397 -3 -398 31 -84 c17 -46 39
-102 50 -124 25 -56 62 -138 131 -292 32 -73 62 -140 67 -150 33 -67 212 -463
212 -468 0 -3 20 -47 44 -98 94 -199 166 -365 190 -439 45 -140 48 -191 43
-853 -4 -652 -4 -645 -52 -798 -20 -68 -67 -145 -112 -189 -21 -20 -74 -54
-118 -75 -75 -36 -87 -38 -192 -41 -128 -5 -188 9 -280 65 -65 38 -73 40 -73
13 0 -12 -7 -20 -17 -20 -10 0 -91 -2 -180 -5 l-163 -5 0 860 0 860 210 0 210
0 0 -584 0 -584 28 -30 c64 -68 219 -69 286 -3 l31 31 3 513 c2 334 -1 529 -8
562 -14 65 -63 200 -110 300 -61 128 -196 424 -238 521 -35 79 -68 152 -147
319 -27 57 -52 113 -141 312 -112 252 -128 382 -121 985 4 381 6 419 25 495
43 167 111 262 226 320 89 45 133 53 282 49 112 -3 126 -5 189 -34z"/>
<path d="M1920 4391 l0 -891 145 0 c140 0 147 1 170 24 17 17 25 39 30 87 3
35 5 399 3 809 -3 590 -6 752 -17 777 -15 39 -37 46 -191 63 -58 6 -113 14
-122 16 -17 5 -18 -42 -18 -885z"/>
<path d="M1920 1909 c0 -844 2 -1000 14 -996 7 3 60 9 117 12 125 9 165 21
193 58 21 28 21 31 21 920 0 961 1 945 -52 987 -23 18 -40 20 -159 20 l-134 0
0 -1001z"/>
<path d="M10480 3844 c0 -38 -11 -195 -25 -349 -13 -154 -27 -332 -30 -395 -4
-63 -17 -241 -30 -395 -28 -319 -31 -382 -23 -390 3 -4 58 -7 122 -8 l116 -3
0 66 c1 36 -13 227 -29 425 -17 198 -42 502 -57 675 -36 445 -35 434 -40 439
-2 2 -4 -27 -4 -65z"/>
<path d="M3399 5155 c-14 -8 -34 -25 -43 -39 -15 -23 -16 -187 -16 -2031 0
-2211 -5 -2046 62 -2081 49 -26 146 -16 192 20 21 15 41 39 47 53 6 15 8 784
7 2018 l-3 1993 -25 27 c-14 15 -39 34 -57 41 -42 18 -131 17 -164 -1z"/>
<path d="M1 288 l-1 -288 193 1 c105 1 176 4 157 8 -172 34 -297 221 -339 510
-6 38 -9 -37 -10 -231z"/>
</g>
</svg>
